<mxfile host="app.diagrams.net" modified="2023-04-24T17:01:33.316Z" agent="Mozilla/5.0 (Macintosh; Intel Mac OS X 10_15_7) AppleWebKit/605.1.15 (KHTML, like Gecko) Version/16.1 Safari/605.1.15" etag="iQr-6YUoYT-TQ4kg_QUE" version="21.2.1" type="github">
  <diagram id="C5RBs43oDa-KdzZeNtuy" name="Page-1">
    <mxGraphModel dx="1805" dy="1897" grid="1" gridSize="10" guides="1" tooltips="1" connect="1" arrows="1" fold="1" page="1" pageScale="1" pageWidth="827" pageHeight="1169" math="0" shadow="0">
      <root>
        <mxCell id="WIyWlLk6GJQsqaUBKTNV-0" />
        <mxCell id="WIyWlLk6GJQsqaUBKTNV-1" parent="WIyWlLk6GJQsqaUBKTNV-0" />
        <mxCell id="ksIPBl9FUamEQ-PhXRzH-84" value="&lt;p style=&quot;margin:0px;margin-top:4px;text-align:center;&quot;&gt;&lt;b&gt;Simulation&lt;/b&gt;&lt;/p&gt;&lt;hr size=&quot;1&quot;&gt;&lt;p style=&quot;margin:0px;margin-left:4px;&quot;&gt;+ Terrain: &amp;nbsp;Terrain&lt;/p&gt;&lt;p style=&quot;margin:0px;margin-left:4px;&quot;&gt;+ Equipe1: Equipe&lt;/p&gt;&lt;p style=&quot;margin:0px;margin-left:4px;&quot;&gt;+ Equipe2: Equipe&lt;/p&gt;&lt;hr size=&quot;1&quot;&gt;&lt;p style=&quot;margin:0px;margin-left:4px;&quot;&gt;+ ChoisirCote(): void&lt;/p&gt;&lt;p style=&quot;margin:0px;margin-left:4px;&quot;&gt;+ Simuler(): Equipe&lt;/p&gt;" style="verticalAlign=top;align=left;overflow=fill;fontSize=12;fontFamily=Helvetica;html=1;whiteSpace=wrap;" vertex="1" parent="WIyWlLk6GJQsqaUBKTNV-1">
          <mxGeometry x="80" y="-510" width="160" height="120" as="geometry" />
        </mxCell>
        <mxCell id="ksIPBl9FUamEQ-PhXRzH-85" value="&lt;p style=&quot;margin:0px;margin-top:4px;text-align:center;&quot;&gt;&lt;b&gt;Terrain&lt;/b&gt;&lt;/p&gt;&lt;hr size=&quot;1&quot;&gt;&lt;p style=&quot;margin:0px;margin-left:4px;&quot;&gt;+ NOMBRELIGNES: int&lt;/p&gt;&lt;p style=&quot;margin:0px;margin-left:4px;&quot;&gt;+ NOMBRECOLONNES: int&lt;/p&gt;&lt;p style=&quot;margin:0px;margin-left:4px;&quot;&gt;+ GrilleJeu: int[ , ]&lt;/p&gt;&lt;hr size=&quot;1&quot;&gt;&lt;p style=&quot;margin:0px;margin-left:4px;&quot;&gt;+ MettreTerrainAZero(): void&lt;/p&gt;&lt;p style=&quot;margin:0px;margin-left:4px;&quot;&gt;+ ToString(): string&lt;/p&gt;" style="verticalAlign=top;align=left;overflow=fill;fontSize=12;fontFamily=Helvetica;html=1;whiteSpace=wrap;" vertex="1" parent="WIyWlLk6GJQsqaUBKTNV-1">
          <mxGeometry x="140" y="-250" width="170" height="120" as="geometry" />
        </mxCell>
        <mxCell id="ksIPBl9FUamEQ-PhXRzH-86" value="&lt;p style=&quot;margin:0px;margin-top:4px;text-align:center;&quot;&gt;&lt;b&gt;Equipe&lt;/b&gt;&lt;/p&gt;&lt;hr size=&quot;1&quot;&gt;&lt;p style=&quot;margin:0px;margin-left:4px;&quot;&gt;+Terrain: Terrain&lt;/p&gt;&lt;p style=&quot;margin:0px;margin-left:4px;&quot;&gt;+ Nom: string&amp;nbsp;&lt;/p&gt;&lt;p style=&quot;margin:0px;margin-left:4px;&quot;&gt;+ ListeJoueurs: List&amp;lt;Joueur&amp;gt;&lt;/p&gt;&lt;p style=&quot;margin:0px;margin-left:4px;&quot;&gt;+ TypeEquipe: ListeEquipe&lt;/p&gt;&lt;p style=&quot;margin:0px;margin-left:4px;&quot;&gt;+ Score: int&lt;/p&gt;&lt;p style=&quot;margin:0px;margin-left:4px;&quot;&gt;+ Cote: char&lt;/p&gt;&lt;hr size=&quot;1&quot;&gt;&lt;p style=&quot;margin:0px;margin-left:4px;&quot;&gt;+ RemplirEquipe(): void&lt;/p&gt;&lt;p style=&quot;margin:0px;margin-left:4px;&quot;&gt;+ MettrePositionInit(): void&lt;/p&gt;&lt;p style=&quot;margin:0px;margin-left:4px;&quot;&gt;+ VerifierAvecBallon(): Bool&lt;/p&gt;&lt;p style=&quot;margin:0px;margin-left:4px;&quot;&gt;+ AfficherJoueurTerrain(): void&lt;/p&gt;&lt;p style=&quot;margin:0px;margin-left:4px;&quot;&gt;+ ToString(): string&lt;/p&gt;" style="verticalAlign=top;align=left;overflow=fill;fontSize=12;fontFamily=Helvetica;html=1;whiteSpace=wrap;" vertex="1" parent="WIyWlLk6GJQsqaUBKTNV-1">
          <mxGeometry x="490" y="-120" width="170" height="210" as="geometry" />
        </mxCell>
        <mxCell id="ksIPBl9FUamEQ-PhXRzH-87" value="&lt;p style=&quot;margin:0px;margin-top:4px;text-align:center;&quot;&gt;&lt;b&gt;&lt;i&gt;Joueur&lt;/i&gt;&lt;/b&gt;&lt;/p&gt;&lt;hr size=&quot;1&quot;&gt;&lt;p style=&quot;margin:0px;margin-left:4px;&quot;&gt;+ Terrain: Terrain&lt;/p&gt;&lt;p style=&quot;margin:0px;margin-left:4px;&quot;&gt;+ Ligne: int&lt;/p&gt;&lt;p style=&quot;margin:0px;margin-left:4px;&quot;&gt;+ Colone: int&lt;/p&gt;&lt;p style=&quot;margin:0px;margin-left:4px;&quot;&gt;+ ListeActionAttaque: List&amp;lt;Action&amp;gt;&lt;/p&gt;&lt;p style=&quot;margin:0px;margin-left:4px;&quot;&gt;+ ListeActionDefense: List&amp;lt;Action&amp;gt;&lt;br&gt;&lt;/p&gt;&lt;p style=&quot;margin:0px;margin-left:4px;&quot;&gt;+ AvecBallon: Bool&lt;/p&gt;&lt;p style=&quot;margin:0px;margin-left:4px;&quot;&gt;+ passe : Passe&amp;nbsp;&lt;/p&gt;&lt;p style=&quot;margin:0px;margin-left:4px;&quot;&gt;+ plaquage: Plaquage&lt;/p&gt;&lt;p style=&quot;margin:0px;margin-left:4px;&quot;&gt;+ traversee: Traversee&amp;nbsp;&lt;/p&gt;&lt;p style=&quot;margin:0px;margin-left:4px;&quot;&gt;+ avancee: Avancee&lt;/p&gt;&lt;p style=&quot;margin:0px;margin-left:4px;&quot;&gt;+ frappe: Frappe&lt;/p&gt;&lt;p style=&quot;margin:0px;margin-left:4px;&quot;&gt;+ rng : Random&lt;/p&gt;&lt;hr size=&quot;1&quot;&gt;&lt;p style=&quot;margin:0px;margin-left:4px;&quot;&gt;+ FaireActionAttaque(): Bool&lt;/p&gt;&lt;p style=&quot;margin:0px;margin-left:4px;&quot;&gt;+ FaireActionDefense(): Bool&lt;/p&gt;" style="verticalAlign=top;align=left;overflow=fill;fontSize=12;fontFamily=Helvetica;html=1;whiteSpace=wrap;" vertex="1" parent="WIyWlLk6GJQsqaUBKTNV-1">
          <mxGeometry x="470" y="-440" width="210" height="250" as="geometry" />
        </mxCell>
        <mxCell id="ksIPBl9FUamEQ-PhXRzH-88" value="&lt;p style=&quot;margin:0px;margin-top:4px;text-align:center;&quot;&gt;&lt;b&gt;&lt;i&gt;Action&lt;/i&gt;&lt;/b&gt;&lt;/p&gt;&lt;hr size=&quot;1&quot;&gt;&lt;p style=&quot;margin:0px;margin-left:4px;&quot;&gt;+ Nom: String&lt;/p&gt;&lt;p style=&quot;margin:0px;margin-left:4px;&quot;&gt;+ Terrain: Terrain&lt;/p&gt;&lt;p style=&quot;margin:0px;margin-left:4px;&quot;&gt;+ rng: Random&lt;/p&gt;&lt;hr size=&quot;1&quot;&gt;&lt;p style=&quot;margin:0px;margin-left:4px;&quot;&gt;+ RealiserAction(): void&lt;/p&gt;&lt;p style=&quot;margin:0px;margin-left:4px;&quot;&gt;+ RealiserAction(): Bool&lt;/p&gt;" style="verticalAlign=top;align=left;overflow=fill;fontSize=12;fontFamily=Helvetica;html=1;whiteSpace=wrap;" vertex="1" parent="WIyWlLk6GJQsqaUBKTNV-1">
          <mxGeometry x="760" y="-290" width="160" height="120" as="geometry" />
        </mxCell>
        <mxCell id="ksIPBl9FUamEQ-PhXRzH-89" value="&lt;p style=&quot;margin:0px;margin-top:4px;text-align:center;&quot;&gt;&lt;b&gt;Avancee&lt;/b&gt;&lt;/p&gt;&lt;hr size=&quot;1&quot;&gt;&lt;p style=&quot;margin:0px;margin-left:4px;&quot;&gt;+ Nom&lt;/p&gt;&lt;hr size=&quot;1&quot;&gt;&lt;p style=&quot;margin:0px;margin-left:4px;&quot;&gt;+ Avancer(): void&lt;/p&gt;&lt;p style=&quot;margin:0px;margin-left:4px;&quot;&gt;+ RealiserAction: Bool&lt;br&gt;&lt;/p&gt;" style="verticalAlign=top;align=left;overflow=fill;fontSize=12;fontFamily=Helvetica;html=1;whiteSpace=wrap;" vertex="1" parent="WIyWlLk6GJQsqaUBKTNV-1">
          <mxGeometry x="1040" y="-480" width="160" height="90" as="geometry" />
        </mxCell>
        <mxCell id="ksIPBl9FUamEQ-PhXRzH-90" value="&lt;p style=&quot;margin:0px;margin-top:4px;text-align:center;&quot;&gt;&lt;b&gt;Traversee&lt;/b&gt;&lt;/p&gt;&lt;hr size=&quot;1&quot;&gt;&lt;p style=&quot;margin:0px;margin-left:4px;&quot;&gt;+ Nom&lt;/p&gt;&lt;hr size=&quot;1&quot;&gt;&lt;p style=&quot;margin:0px;margin-left:4px;&quot;&gt;+ Traverser(): void&lt;br&gt;&lt;/p&gt;&lt;p style=&quot;margin:0px;margin-left:4px;&quot;&gt;+ RealiserAction: Bool&lt;br&gt;&lt;/p&gt;" style="verticalAlign=top;align=left;overflow=fill;fontSize=12;fontFamily=Helvetica;html=1;whiteSpace=wrap;" vertex="1" parent="WIyWlLk6GJQsqaUBKTNV-1">
          <mxGeometry x="1040" y="-280" width="160" height="90" as="geometry" />
        </mxCell>
        <mxCell id="ksIPBl9FUamEQ-PhXRzH-91" value="&lt;p style=&quot;margin:0px;margin-top:4px;text-align:center;&quot;&gt;&lt;b&gt;Frappe&lt;/b&gt;&lt;/p&gt;&lt;hr size=&quot;1&quot;&gt;&lt;p style=&quot;margin:0px;margin-left:4px;&quot;&gt;+ Nom&lt;/p&gt;&lt;hr size=&quot;1&quot;&gt;&lt;p style=&quot;margin:0px;margin-left:4px;&quot;&gt;+ Frapper(): void&lt;br&gt;&lt;/p&gt;&lt;p style=&quot;margin:0px;margin-left:4px;&quot;&gt;+ RealiserAction: Bool&lt;br&gt;&lt;/p&gt;" style="verticalAlign=top;align=left;overflow=fill;fontSize=12;fontFamily=Helvetica;html=1;whiteSpace=wrap;" vertex="1" parent="WIyWlLk6GJQsqaUBKTNV-1">
          <mxGeometry x="1040" y="-380" width="160" height="90" as="geometry" />
        </mxCell>
        <mxCell id="ksIPBl9FUamEQ-PhXRzH-92" value="&lt;p style=&quot;margin:0px;margin-top:4px;text-align:center;&quot;&gt;&lt;b&gt;Plaquage&lt;/b&gt;&lt;/p&gt;&lt;hr size=&quot;1&quot;&gt;&lt;p style=&quot;margin:0px;margin-left:4px;&quot;&gt;+ Nom&lt;/p&gt;&lt;hr size=&quot;1&quot;&gt;&lt;p style=&quot;margin:0px;margin-left:4px;&quot;&gt;+ Plaquer(): void&lt;br&gt;&lt;/p&gt;&lt;p style=&quot;margin:0px;margin-left:4px;&quot;&gt;+ RealiserAction: Bool&lt;br&gt;&lt;/p&gt;" style="verticalAlign=top;align=left;overflow=fill;fontSize=12;fontFamily=Helvetica;html=1;whiteSpace=wrap;" vertex="1" parent="WIyWlLk6GJQsqaUBKTNV-1">
          <mxGeometry x="1040" y="-80" width="160" height="90" as="geometry" />
        </mxCell>
        <mxCell id="ksIPBl9FUamEQ-PhXRzH-93" value="&lt;p style=&quot;margin:0px;margin-top:4px;text-align:center;&quot;&gt;&lt;b&gt;Passe&lt;/b&gt;&lt;/p&gt;&lt;hr size=&quot;1&quot;&gt;&lt;p style=&quot;margin:0px;margin-left:4px;&quot;&gt;+ Nom&amp;nbsp;&lt;/p&gt;&lt;hr size=&quot;1&quot;&gt;&lt;p style=&quot;margin:0px;margin-left:4px;&quot;&gt;+ Passer(): void&lt;br&gt;&lt;/p&gt;&lt;p style=&quot;margin:0px;margin-left:4px;&quot;&gt;+ RealiserAction: Bool&lt;/p&gt;" style="verticalAlign=top;align=left;overflow=fill;fontSize=12;fontFamily=Helvetica;html=1;whiteSpace=wrap;" vertex="1" parent="WIyWlLk6GJQsqaUBKTNV-1">
          <mxGeometry x="1040" y="-180" width="160" height="90" as="geometry" />
        </mxCell>
        <mxCell id="ksIPBl9FUamEQ-PhXRzH-94" value="&lt;p style=&quot;margin:0px;margin-top:4px;text-align:center;&quot;&gt;&lt;b&gt;Ailier&lt;/b&gt;&lt;/p&gt;&lt;hr size=&quot;1&quot;&gt;&lt;p style=&quot;margin:0px;margin-left:4px;&quot;&gt;+ ListeActionAttaque: List&lt;/p&gt;&lt;hr size=&quot;1&quot;&gt;&lt;p style=&quot;margin:0px;margin-left:4px;&quot;&gt;+FaireActionAttaque(): Bool&lt;/p&gt;" style="verticalAlign=top;align=left;overflow=fill;fontSize=12;fontFamily=Helvetica;html=1;whiteSpace=wrap;" vertex="1" parent="WIyWlLk6GJQsqaUBKTNV-1">
          <mxGeometry x="340" y="-640" width="160" height="90" as="geometry" />
        </mxCell>
        <mxCell id="ksIPBl9FUamEQ-PhXRzH-95" value="&lt;p style=&quot;margin:0px;margin-top:4px;text-align:center;&quot;&gt;&lt;b&gt;Neuf&lt;/b&gt;&lt;/p&gt;&lt;hr size=&quot;1&quot;&gt;&lt;p style=&quot;margin:0px;margin-left:4px;&quot;&gt;+ ListeActionAttaque: List&lt;br&gt;&lt;/p&gt;&lt;hr size=&quot;1&quot;&gt;&lt;p style=&quot;margin:0px;margin-left:4px;&quot;&gt;+FaireActionAttaque(): Bool&lt;br&gt;&lt;/p&gt;" style="verticalAlign=top;align=left;overflow=fill;fontSize=12;fontFamily=Helvetica;html=1;whiteSpace=wrap;" vertex="1" parent="WIyWlLk6GJQsqaUBKTNV-1">
          <mxGeometry x="680" y="-640" width="160" height="90" as="geometry" />
        </mxCell>
        <mxCell id="ksIPBl9FUamEQ-PhXRzH-96" value="&lt;p style=&quot;margin:0px;margin-top:4px;text-align:center;&quot;&gt;&lt;b&gt;Triangle&lt;/b&gt;&lt;/p&gt;&lt;hr size=&quot;1&quot;&gt;&lt;p style=&quot;margin:0px;margin-left:4px;&quot;&gt;+ ListeActionAttaque: List&lt;br&gt;&lt;/p&gt;&lt;hr size=&quot;1&quot;&gt;&lt;p style=&quot;margin:0px;margin-left:4px;&quot;&gt;+FaireActionAttaque(): Bool&lt;br&gt;&lt;/p&gt;" style="verticalAlign=top;align=left;overflow=fill;fontSize=12;fontFamily=Helvetica;html=1;whiteSpace=wrap;" vertex="1" parent="WIyWlLk6GJQsqaUBKTNV-1">
          <mxGeometry x="847" y="-640" width="160" height="90" as="geometry" />
        </mxCell>
        <mxCell id="ksIPBl9FUamEQ-PhXRzH-97" value="&lt;p style=&quot;margin:0px;margin-top:4px;text-align:center;&quot;&gt;&lt;b&gt;TroisQuarts&lt;/b&gt;&lt;/p&gt;&lt;hr size=&quot;1&quot;&gt;&lt;p style=&quot;margin:0px;margin-left:4px;&quot;&gt;+ ListeActionAttaque: List&lt;br&gt;&lt;/p&gt;&lt;hr size=&quot;1&quot;&gt;&lt;p style=&quot;margin:0px;margin-left:4px;&quot;&gt;+FaireActionAttaque(): Bool&lt;br&gt;&lt;/p&gt;" style="verticalAlign=top;align=left;overflow=fill;fontSize=12;fontFamily=Helvetica;html=1;whiteSpace=wrap;" vertex="1" parent="WIyWlLk6GJQsqaUBKTNV-1">
          <mxGeometry x="510" y="-640" width="160" height="90" as="geometry" />
        </mxCell>
        <mxCell id="ksIPBl9FUamEQ-PhXRzH-98" value="" style="endArrow=open;html=1;endSize=12;startArrow=diamondThin;startSize=14;startFill=1;edgeStyle=orthogonalEdgeStyle;align=left;verticalAlign=bottom;rounded=0;exitX=0.5;exitY=0;exitDx=0;exitDy=0;" edge="1" parent="WIyWlLk6GJQsqaUBKTNV-1" source="ksIPBl9FUamEQ-PhXRzH-86" target="ksIPBl9FUamEQ-PhXRzH-87">
          <mxGeometry x="-1" y="3" relative="1" as="geometry">
            <mxPoint x="530" y="-190" as="sourcePoint" />
            <mxPoint x="690" y="-190" as="targetPoint" />
          </mxGeometry>
        </mxCell>
        <mxCell id="ksIPBl9FUamEQ-PhXRzH-99" value="" style="endArrow=open;html=1;endSize=12;startArrow=diamondThin;startSize=14;startFill=1;edgeStyle=orthogonalEdgeStyle;align=left;verticalAlign=bottom;rounded=0;exitX=0;exitY=0.5;exitDx=0;exitDy=0;entryX=1;entryY=0.5;entryDx=0;entryDy=0;" edge="1" parent="WIyWlLk6GJQsqaUBKTNV-1" source="ksIPBl9FUamEQ-PhXRzH-88" target="ksIPBl9FUamEQ-PhXRzH-87">
          <mxGeometry x="-1" y="3" relative="1" as="geometry">
            <mxPoint x="580" y="-110" as="sourcePoint" />
            <mxPoint x="580" y="-180" as="targetPoint" />
          </mxGeometry>
        </mxCell>
        <mxCell id="ksIPBl9FUamEQ-PhXRzH-100" value="" style="endArrow=open;html=1;endSize=12;startArrow=diamondThin;startSize=14;startFill=1;edgeStyle=orthogonalEdgeStyle;align=left;verticalAlign=bottom;rounded=0;" edge="1" parent="WIyWlLk6GJQsqaUBKTNV-1">
          <mxGeometry x="-1" y="3" relative="1" as="geometry">
            <mxPoint x="270" y="-34.933333333333394" as="sourcePoint" />
            <mxPoint x="490" y="-80" as="targetPoint" />
            <Array as="points">
              <mxPoint x="334" y="-80" />
            </Array>
          </mxGeometry>
        </mxCell>
        <mxCell id="ksIPBl9FUamEQ-PhXRzH-101" value="" style="endArrow=open;html=1;endSize=12;startArrow=diamondThin;startSize=14;startFill=1;edgeStyle=orthogonalEdgeStyle;align=left;verticalAlign=bottom;rounded=0;exitX=1;exitY=0.5;exitDx=0;exitDy=0;entryX=0.11;entryY=-0.026;entryDx=0;entryDy=0;entryPerimeter=0;" edge="1" parent="WIyWlLk6GJQsqaUBKTNV-1" source="ksIPBl9FUamEQ-PhXRzH-85" target="ksIPBl9FUamEQ-PhXRzH-86">
          <mxGeometry x="-1" y="3" relative="1" as="geometry">
            <mxPoint x="780" y="-215" as="sourcePoint" />
            <mxPoint x="670" y="-215" as="targetPoint" />
            <Array as="points">
              <mxPoint x="310" y="-200" />
              <mxPoint x="400" y="-200" />
              <mxPoint x="400" y="-160" />
              <mxPoint x="509" y="-160" />
            </Array>
          </mxGeometry>
        </mxCell>
        <mxCell id="ksIPBl9FUamEQ-PhXRzH-105" value="" style="endArrow=open;html=1;endSize=12;startArrow=diamondThin;startSize=14;startFill=1;edgeStyle=orthogonalEdgeStyle;align=left;verticalAlign=bottom;rounded=0;entryX=0.5;entryY=1;entryDx=0;entryDy=0;" edge="1" parent="WIyWlLk6GJQsqaUBKTNV-1" target="ksIPBl9FUamEQ-PhXRzH-84">
          <mxGeometry x="-1" y="3" relative="1" as="geometry">
            <mxPoint x="240" y="-250" as="sourcePoint" />
            <mxPoint x="130" as="targetPoint" />
            <Array as="points">
              <mxPoint x="240" y="-250" />
              <mxPoint x="240" y="-320" />
              <mxPoint x="160" y="-320" />
            </Array>
          </mxGeometry>
        </mxCell>
        <mxCell id="ksIPBl9FUamEQ-PhXRzH-106" value="" style="endArrow=none;endFill=0;endSize=12;html=1;rounded=0;edgeStyle=orthogonalEdgeStyle;startArrow=open;startFill=0;" edge="1" parent="WIyWlLk6GJQsqaUBKTNV-1">
          <mxGeometry width="160" relative="1" as="geometry">
            <mxPoint x="590" y="-550" as="sourcePoint" />
            <mxPoint x="590" y="-450" as="targetPoint" />
          </mxGeometry>
        </mxCell>
        <mxCell id="ksIPBl9FUamEQ-PhXRzH-107" value="" style="endArrow=open;endFill=1;endSize=12;html=1;rounded=0;" edge="1" parent="WIyWlLk6GJQsqaUBKTNV-1">
          <mxGeometry width="160" relative="1" as="geometry">
            <mxPoint x="920" y="-230" as="sourcePoint" />
            <mxPoint x="1030" y="-230" as="targetPoint" />
            <Array as="points">
              <mxPoint x="970" y="-230" />
            </Array>
          </mxGeometry>
        </mxCell>
        <mxCell id="ksIPBl9FUamEQ-PhXRzH-108" value="" style="endArrow=open;endFill=1;endSize=12;html=1;rounded=0;entryX=0;entryY=0.5;entryDx=0;entryDy=0;edgeStyle=orthogonalEdgeStyle;" edge="1" parent="WIyWlLk6GJQsqaUBKTNV-1" target="ksIPBl9FUamEQ-PhXRzH-89">
          <mxGeometry width="160" relative="1" as="geometry">
            <mxPoint x="920" y="-230" as="sourcePoint" />
            <mxPoint x="1020" y="-400" as="targetPoint" />
            <Array as="points">
              <mxPoint x="1000" y="-230" />
              <mxPoint x="1000" y="-435" />
            </Array>
          </mxGeometry>
        </mxCell>
        <mxCell id="ksIPBl9FUamEQ-PhXRzH-109" value="" style="endArrow=none;endFill=0;endSize=12;html=1;rounded=0;edgeStyle=orthogonalEdgeStyle;startArrow=open;startFill=0;" edge="1" parent="WIyWlLk6GJQsqaUBKTNV-1">
          <mxGeometry width="160" relative="1" as="geometry">
            <mxPoint x="759.33" y="-550" as="sourcePoint" />
            <mxPoint x="590" y="-440" as="targetPoint" />
            <Array as="points">
              <mxPoint x="759" y="-480" />
              <mxPoint x="590" y="-480" />
            </Array>
          </mxGeometry>
        </mxCell>
        <mxCell id="ksIPBl9FUamEQ-PhXRzH-110" value="" style="endArrow=open;endFill=1;endSize=12;html=1;rounded=0;entryX=0.5;entryY=0;entryDx=0;entryDy=0;edgeStyle=orthogonalEdgeStyle;" edge="1" parent="WIyWlLk6GJQsqaUBKTNV-1">
          <mxGeometry width="160" relative="1" as="geometry">
            <mxPoint x="590" y="-440" as="sourcePoint" />
            <mxPoint x="419.33000000000004" y="-554" as="targetPoint" />
            <Array as="points">
              <mxPoint x="590" y="-480" />
              <mxPoint x="419" y="-480" />
            </Array>
          </mxGeometry>
        </mxCell>
        <mxCell id="ksIPBl9FUamEQ-PhXRzH-111" value="" style="endArrow=open;endFill=1;endSize=12;html=1;rounded=0;entryX=0.5;entryY=1;entryDx=0;entryDy=0;edgeStyle=orthogonalEdgeStyle;" edge="1" parent="WIyWlLk6GJQsqaUBKTNV-1" target="ksIPBl9FUamEQ-PhXRzH-96">
          <mxGeometry width="160" relative="1" as="geometry">
            <mxPoint x="590" y="-440" as="sourcePoint" />
            <mxPoint x="859.33" y="-380" as="targetPoint" />
            <Array as="points">
              <mxPoint x="590" y="-480" />
              <mxPoint x="927" y="-480" />
            </Array>
          </mxGeometry>
        </mxCell>
        <mxCell id="ksIPBl9FUamEQ-PhXRzH-113" value="" style="endArrow=open;endFill=1;endSize=12;html=1;rounded=0;entryX=0;entryY=0.5;entryDx=0;entryDy=0;edgeStyle=orthogonalEdgeStyle;" edge="1" parent="WIyWlLk6GJQsqaUBKTNV-1">
          <mxGeometry width="160" relative="1" as="geometry">
            <mxPoint x="920" y="-230" as="sourcePoint" />
            <mxPoint x="1040" y="-130" as="targetPoint" />
            <Array as="points">
              <mxPoint x="920" y="-230" />
              <mxPoint x="1000" y="-230" />
              <mxPoint x="1000" y="-130" />
            </Array>
          </mxGeometry>
        </mxCell>
        <mxCell id="ksIPBl9FUamEQ-PhXRzH-114" value="" style="endArrow=open;endFill=1;endSize=12;html=1;rounded=0;entryX=0;entryY=0.5;entryDx=0;entryDy=0;edgeStyle=orthogonalEdgeStyle;" edge="1" parent="WIyWlLk6GJQsqaUBKTNV-1" target="ksIPBl9FUamEQ-PhXRzH-92">
          <mxGeometry width="160" relative="1" as="geometry">
            <mxPoint x="920" y="-230" as="sourcePoint" />
            <mxPoint x="1050" y="-120" as="targetPoint" />
            <Array as="points">
              <mxPoint x="1000" y="-230" />
              <mxPoint x="1000" y="-35" />
            </Array>
          </mxGeometry>
        </mxCell>
        <mxCell id="ksIPBl9FUamEQ-PhXRzH-115" value="" style="endArrow=open;endFill=1;endSize=12;html=1;rounded=0;edgeStyle=orthogonalEdgeStyle;" edge="1" parent="WIyWlLk6GJQsqaUBKTNV-1">
          <mxGeometry width="160" relative="1" as="geometry">
            <mxPoint x="920" y="-230" as="sourcePoint" />
            <mxPoint x="1040" y="-330" as="targetPoint" />
            <Array as="points">
              <mxPoint x="920" y="-230" />
              <mxPoint x="1000" y="-230" />
              <mxPoint x="1000" y="-330" />
            </Array>
          </mxGeometry>
        </mxCell>
        <mxCell id="ksIPBl9FUamEQ-PhXRzH-125" value="&lt;p style=&quot;margin:0px;margin-top:4px;text-align:center;&quot;&gt;&lt;b&gt;Tournoi&lt;/b&gt;&lt;/p&gt;&lt;hr size=&quot;1&quot;&gt;&lt;p style=&quot;margin:0px;margin-left:4px;&quot;&gt;+ NbEquipe: int&lt;/p&gt;&lt;p style=&quot;margin:0px;margin-left:4px;&quot;&gt;+ ListeEquipe: List&amp;lt;Equipe&amp;gt;&lt;/p&gt;&lt;p style=&quot;margin:0px;margin-left:4px;&quot;&gt;+ Terrain: Terrain&lt;/p&gt;&lt;hr size=&quot;1&quot;&gt;&lt;p style=&quot;margin:0px;margin-left:4px;&quot;&gt;+ CompleterListe(): void&lt;/p&gt;&lt;p style=&quot;margin:0px;margin-left:4px;&quot;&gt;+ ToString(): string&lt;/p&gt;&lt;p style=&quot;margin:0px;margin-left:4px;&quot;&gt;+ RetirerBallon(): void&lt;/p&gt;&lt;p style=&quot;margin:0px;margin-left:4px;&quot;&gt;+ MettreScoreZero(): void&lt;/p&gt;&lt;p style=&quot;margin:0px;margin-left:4px;&quot;&gt;+ LancerTournoi(): void&lt;/p&gt;" style="verticalAlign=top;align=left;overflow=fill;fontSize=12;fontFamily=Helvetica;html=1;whiteSpace=wrap;" vertex="1" parent="WIyWlLk6GJQsqaUBKTNV-1">
          <mxGeometry x="110" y="-90" width="160" height="160" as="geometry" />
        </mxCell>
      </root>
    </mxGraphModel>
  </diagram>
</mxfile>
